Coordinates
version=1
nRows=16
nColumns=22
inDegrees=yes

Units are S.I. units (second, meters, Newtons, ...)
If the header above contains a line with 'inDegrees', this indicates whether rotational values are in degrees (yes) or radians (no).

endheader
time	pelvis_tilt	pelvis_list	pelvis_rotation	pelvis_tx	pelvis_ty	pelvis_tz	hip_flexion_r	hip_adduction_r	hip_rotation_r	knee_angle_r	ankle_angle_r	subtalar_angle_r	hip_flexion_l	hip_adduction_l	hip_rotation_l	knee_angle_l	ankle_angle_l	subtalar_angle_l	lumbar_extension	lumbar_bending	lumbar_rotation
      0.01000000	    -11.11091811	      4.36228119	    -34.29310624	     -0.99404827	      0.98040209	     -0.12842419	     16.52188908	      3.27385691	     -2.34635630	    -16.58302544	     17.49828102	     -6.27121143	     15.47865762	     -0.96482919	     -7.36012003	    -15.44676609	     19.66530254	     -4.20596950	      6.59865376	      3.42443014	      4.36197942
      0.02000000	    -11.60863723	      4.50323022	    -34.29260844	     -0.99523009	      0.97944070	     -0.12828547	     17.18485599	      3.51816835	     -2.20912245	    -16.74917193	     17.45759736	     -6.25871567	     16.21967551	     -1.22228477	     -7.38376616	    -15.77196068	     19.78255620	     -4.11268827	      7.09309820	      3.51942466	      4.38087999
      0.03000000	    -12.06817625	      4.62989465	    -34.29152839	     -0.99635541	      0.97855005	     -0.12817624	     17.79722345	      3.74698536	     -2.09340631	    -16.90059159	     17.38732973	     -6.32026561	     16.91106800	     -1.46457346	     -7.40517661	    -16.08607075	     19.89276116	     -4.07984248	      7.54250669	      3.60613596	      4.40538932
      0.04000000	    -12.43944904	      4.72852053	    -34.29457907	     -0.99729536	      0.97783172	     -0.12809475	     18.29303526	      3.93712454	     -1.99481241	    -17.02619164	     17.33000440	     -6.36699007	     17.47119099	     -1.66682274	     -7.43170790	    -16.34462812	     19.98129798	     -4.04800712	      7.89959794	      3.67607384	      4.42468505
      0.05000000	    -12.70268130	      4.79707650	    -34.30069986	     -0.99800397	      0.97732155	     -0.12805704	     18.64957045	      4.07466466	     -1.92114694	    -17.12049633	     17.29199785	     -6.39717815	     17.87224493	     -1.81420152	     -7.45986374	    -16.53199627	     20.04147732	     -4.02057488	      8.14593512	      3.72246740	      4.44262713
      0.06000000	    -12.82237415	      4.79525645	    -34.32435658	     -0.99845441	      0.97710255	     -0.12801169	     18.79662291	      4.17832445	     -1.86789709	    -17.15985816	     17.29046250	     -6.40855211	     18.05369325	     -1.92861853	     -7.52755792	    -16.64585818	     20.08611729	     -4.01610072	      8.22079090	      3.76283075	      4.47443998
      0.07000000	    -12.93646272	      4.84964550	    -34.33089921	     -0.99880952	      0.97687090	     -0.12807062	     18.98409312	      4.21397748	     -1.83696541	    -17.22497569	     17.25216403	     -6.41857065	     18.24415734	     -1.96773310	     -7.53118449	    -16.72321801	     20.08832178	     -3.98603151	      8.33803508	      3.75487727	      4.49504944
      0.08000000	    -12.93728141	      4.84513009	    -34.33253392	     -0.99896608	      0.97686314	     -0.12812506	     19.00161281	      4.22314918	     -1.82723633	    -17.24382824	     17.25406788	     -6.41905393	     18.25827645	     -1.97669937	     -7.52570195	    -16.73503891	     20.08535563	     -3.98375796	      8.31961206	      3.73727088	      4.48789311
      0.09000000	    -12.93805132	      4.84392399	    -34.33772630	     -0.99907014	      0.97686681	     -0.12821094	     19.00947722	      4.22446748	     -1.82858768	    -17.24071988	     17.25425654	     -6.41893296	     18.26581072	     -1.97889760	     -7.52539618	    -16.73392980	     20.08487272	     -3.98325500	      8.30701183	      3.73071395	      4.48806784
      0.10000000	    -12.92613011	      4.84099500	    -34.33831593	     -0.99919719	      0.97688028	     -0.12833436	     19.02066701	      4.21790211	     -1.82511325	    -17.26537384	     17.24777455	     -6.41733712	     18.27807371	     -1.97455629	     -7.52447637	    -16.76148518	     20.07771619	     -3.97966475	      8.27580229	      3.71518530	      4.49994863
      0.11000000	    -12.92509537	      4.83909892	    -34.34017539	     -0.99928666	      0.97689033	     -0.12844471	     19.02621137	      4.21632683	     -1.82676566	    -17.26243067	     17.24780923	     -6.41703870	     18.28294410	     -1.97290434	     -7.52580438	    -16.75795314	     20.07751336	     -3.97907948	      8.26478364	      3.71188283	      4.49995832
      0.12000000	    -12.89551831	      4.83924456	    -34.33970519	     -0.99939819	      0.97692663	     -0.12858367	     19.02429014	      4.19264223	     -1.84189321	    -17.28740167	     17.24224296	     -6.41242581	     18.27238531	     -1.95155697	     -7.52561241	    -16.76783274	     20.06825026	     -3.97198777	      8.22012817	      3.68627168	      4.49873771
      0.13000000	    -12.89522131	      4.83539417	    -34.33362890	     -0.99950999	      0.97693578	     -0.12869777	     19.02956883	      4.19255390	     -1.84264300	    -17.28387551	     17.24288733	     -6.41210080	     18.27700283	     -1.95142688	     -7.52733864	    -16.75942786	     20.06813459	     -3.97160129	      8.20819631	      3.68160871	      4.49908999
      0.14000000	    -12.89397856	      4.83158292	    -34.32804900	     -0.99964404	      0.97694464	     -0.12880543	     19.03603019	      4.19297777	     -1.84430791	    -17.28185721	     17.24248595	     -6.41164550	     18.28170581	     -1.95186730	     -7.52775355	    -16.75159043	     20.06752919	     -3.97126308	      8.19378267	      3.67462917	      4.49723415
      0.15000000	    -12.86110357	      4.82155517	    -34.29768444	     -0.99976123	      0.97699613	     -0.12895412	     19.02301194	      4.16733035	     -1.90033855	    -17.30324404	     17.23967683	     -6.40480938	     18.25558911	     -1.92822052	     -7.49137607	    -16.73802119	     20.04643053	     -3.96660061	      8.14230114	      3.64741712	      4.46057145
      0.16000000	    -12.86182989	      4.81757462	    -34.29275280	     -0.99993296	      0.97700099	     -0.12903608	     19.03191642	      4.17230413	     -1.90016997	    -17.30020414	     17.23966962	     -6.40453750	     18.26197159	     -1.93351895	     -7.49203362	    -16.72871723	     20.04652770	     -3.96666241	      8.12861854	      3.63805344	      4.45764104
